<svg width="824" height="308" viewBox="0 0 824 308" fill="none" xmlns="http://www.w3.org/2000/svg">
<path fill-rule="evenodd" clip-rule="evenodd" d="M541.362 18.686L422.172 192.886L339.347 82.1713L269.424 160.225L198 81.4129L222.52 59.1915L269.282 110.791L341.65 30.0074L420.972 136.039L514.052 0L541.362 18.686Z" fill="#cccccf"/>
<path fill-rule="evenodd" clip-rule="evenodd" d="M626.571 18.686L511.094 187.461L483.783 168.775L599.261 0L626.571 18.686Z" fill="#cccccf"/>
<path d="M13.6906 282L4.87059 237.99H12.0706L19.3606 277.23H20.6206L30.2506 237.99H42.0406L51.6706 277.23H52.9306L60.2206 237.99H67.4206L58.6006 282H46.4506L36.7306 242.76H35.5606L25.8406 282H13.6906ZM79.6409 282V237.99H86.5709V243.39H87.8309C88.6109 241.47 89.8109 240.06 91.4309 239.16C93.0509 238.26 95.1809 237.81 97.8209 237.81H103.041V244.29H97.3709C94.1909 244.29 91.6109 245.19 89.6309 246.99C87.7109 248.73 86.7509 251.46 86.7509 255.18V282H79.6409ZM132.325 283.26C127.885 283.26 123.955 282.33 120.535 280.47C117.175 278.61 114.535 276 112.615 272.64C110.755 269.22 109.825 265.2 109.825 260.58V259.41C109.825 254.85 110.755 250.86 112.615 247.44C114.535 244.02 117.175 241.38 120.535 239.52C123.955 237.66 127.885 236.73 132.325 236.73C136.765 236.73 140.665 237.66 144.025 239.52C147.445 241.38 150.085 244.02 151.945 247.44C153.865 250.86 154.825 254.85 154.825 259.41V260.58C154.825 265.2 153.865 269.22 151.945 272.64C150.085 276 147.445 278.61 144.025 280.47C140.665 282.33 136.765 283.26 132.325 283.26ZM132.325 276.87C137.005 276.87 140.725 275.4 143.485 272.46C146.305 269.46 147.715 265.44 147.715 260.4V259.59C147.715 254.55 146.305 250.56 143.485 247.62C140.725 244.62 137.005 243.12 132.325 243.12C127.705 243.12 123.985 244.62 121.165 247.62C118.345 250.56 116.935 254.55 116.935 259.59V260.4C116.935 265.44 118.345 269.46 121.165 272.46C123.985 275.4 127.705 276.87 132.325 276.87ZM167.619 282V237.99H174.549V245.46H175.809C176.769 243.36 178.389 241.47 180.669 239.79C183.009 238.05 186.429 237.18 190.929 237.18C194.229 237.18 197.169 237.87 199.749 239.25C202.389 240.63 204.489 242.67 206.049 245.37C207.609 248.07 208.389 251.4 208.389 255.36V282H201.279V255.9C201.279 251.52 200.169 248.34 197.949 246.36C195.789 244.38 192.849 243.39 189.129 243.39C184.869 243.39 181.389 244.77 178.689 247.53C176.049 250.29 174.729 254.4 174.729 259.86V282H167.619ZM220.655 260.22V258.96C220.655 254.34 221.585 250.38 223.445 247.08C225.305 243.78 227.825 241.23 231.005 239.43C234.185 237.63 237.665 236.73 241.445 236.73C246.065 236.73 249.605 237.63 252.065 239.43C254.585 241.17 256.445 243.12 257.645 245.28H258.905V237.99H265.655V292.26C265.655 294.66 264.995 296.55 263.675 297.93C262.355 299.31 260.435 300 257.915 300H228.035V293.7H256.025C257.825 293.7 258.725 292.8 258.725 291V274.26H257.465C256.745 275.58 255.725 276.87 254.405 278.13C253.085 279.39 251.375 280.44 249.275 281.28C247.175 282.06 244.565 282.45 241.445 282.45C237.665 282.45 234.185 281.55 231.005 279.75C227.825 277.95 225.305 275.4 223.445 272.1C221.585 268.74 220.655 264.78 220.655 260.22ZM243.335 276.15C247.895 276.15 251.585 274.71 254.405 271.83C257.285 268.95 258.725 264.99 258.725 259.95V259.23C258.725 254.13 257.285 250.17 254.405 247.35C251.585 244.47 247.895 243.03 243.335 243.03C238.835 243.03 235.115 244.47 232.175 247.35C229.295 250.17 227.855 254.13 227.855 259.23V259.95C227.855 264.99 229.295 268.95 232.175 271.83C235.115 274.71 238.835 276.15 243.335 276.15ZM303.674 282V237.99H310.784V282H303.674ZM307.274 231.15C305.714 231.15 304.394 230.64 303.314 229.62C302.294 228.6 301.784 227.31 301.784 225.75C301.784 224.13 302.294 222.81 303.314 221.79C304.394 220.77 305.714 220.26 307.274 220.26C308.834 220.26 310.124 220.77 311.144 221.79C312.164 222.81 312.674 224.13 312.674 225.75C312.674 227.31 312.164 228.6 311.144 229.62C310.124 230.64 308.834 231.15 307.274 231.15ZM325.735 282V237.99H332.665V245.46H333.925C334.885 243.36 336.505 241.47 338.785 239.79C341.125 238.05 344.545 237.18 349.045 237.18C352.345 237.18 355.285 237.87 357.865 239.25C360.505 240.63 362.605 242.67 364.165 245.37C365.725 248.07 366.505 251.4 366.505 255.36V282H359.395V255.9C359.395 251.52 358.285 248.34 356.065 246.36C353.905 244.38 350.965 243.39 347.245 243.39C342.985 243.39 339.505 244.77 336.805 247.53C334.165 250.29 332.845 254.4 332.845 259.86V282H325.735ZM398.66 283.26C393.2 283.26 388.58 282 384.8 279.48C381.08 276.96 378.83 272.97 378.05 267.51L384.8 265.98C385.28 268.86 386.18 271.14 387.5 272.82C388.82 274.44 390.44 275.61 392.36 276.33C394.34 276.99 396.44 277.32 398.66 277.32C401.96 277.32 404.57 276.66 406.49 275.34C408.41 274.02 409.37 272.25 409.37 270.03C409.37 267.75 408.44 266.16 406.58 265.26C404.78 264.3 402.29 263.52 399.11 262.92L395.42 262.29C392.6 261.81 390.02 261.06 387.68 260.04C385.34 259.02 383.48 257.64 382.1 255.9C380.72 254.16 380.03 251.97 380.03 249.33C380.03 245.37 381.56 242.28 384.62 240.06C387.68 237.84 391.73 236.73 396.77 236.73C401.75 236.73 405.77 237.87 408.83 240.15C411.95 242.37 413.96 245.52 414.86 249.6L408.2 251.31C407.66 248.13 406.37 245.91 404.33 244.65C402.29 243.33 399.77 242.67 396.77 242.67C393.77 242.67 391.4 243.24 389.66 244.38C387.92 245.46 387.05 247.08 387.05 249.24C387.05 251.34 387.86 252.9 389.48 253.92C391.16 254.88 393.38 255.6 396.14 256.08L399.83 256.71C402.95 257.25 405.74 258 408.2 258.96C410.72 259.86 412.7 261.18 414.14 262.92C415.64 264.66 416.39 266.94 416.39 269.76C416.39 274.08 414.77 277.41 411.53 279.75C408.35 282.09 404.06 283.26 398.66 283.26ZM443.624 282C441.104 282 439.154 281.31 437.774 279.93C436.454 278.55 435.794 276.66 435.794 274.26V244.2H422.564V237.99H435.794V222.33H442.904V237.99H457.304V244.2H442.904V273.18C442.904 274.98 443.774 275.88 445.514 275.88H455.324V282H443.624ZM468.821 282V237.99H475.751V243.39H477.011C477.791 241.47 478.991 240.06 480.611 239.16C482.231 238.26 484.361 237.81 487.001 237.81H492.221V244.29H486.551C483.371 244.29 480.791 245.19 478.811 246.99C476.891 248.73 475.931 251.46 475.931 255.18V282H468.821ZM519.576 282.81C516.396 282.81 513.456 282.12 510.756 280.74C508.116 279.36 506.016 277.32 504.456 274.62C502.956 271.86 502.206 268.53 502.206 264.63V237.99H509.316V264.09C509.316 268.47 510.396 271.65 512.556 273.63C514.776 275.61 517.746 276.6 521.466 276.6C525.666 276.6 529.116 275.22 531.816 272.46C534.516 269.7 535.866 265.59 535.866 260.13V237.99H542.976V282H536.046V274.53H534.786C533.826 276.63 532.176 278.55 529.836 280.29C527.496 281.97 524.076 282.81 519.576 282.81ZM557.854 282V237.99H564.784V243.48H566.044C566.884 241.92 568.264 240.48 570.184 239.16C572.104 237.84 574.804 237.18 578.284 237.18C581.704 237.18 584.464 237.93 586.564 239.43C588.724 240.93 590.284 242.76 591.244 244.92H592.504C593.524 242.76 595.054 240.93 597.094 239.43C599.194 237.93 602.104 237.18 605.824 237.18C608.764 237.18 611.344 237.78 613.564 238.98C615.784 240.18 617.524 241.92 618.784 244.2C620.104 246.42 620.764 249.09 620.764 252.21V282H613.654V252.84C613.654 249.9 612.784 247.59 611.044 245.91C609.364 244.17 606.994 243.3 603.934 243.3C600.694 243.3 598.024 244.35 595.924 246.45C593.884 248.55 592.864 251.58 592.864 255.54V282H585.754V252.84C585.754 249.9 584.884 247.59 583.144 245.91C581.464 244.17 579.094 243.3 576.034 243.3C572.794 243.3 570.124 244.35 568.024 246.45C565.984 248.55 564.964 251.58 564.964 255.54V282H557.854ZM655.445 283.26C651.005 283.26 647.105 282.33 643.745 280.47C640.385 278.55 637.775 275.88 635.915 272.46C634.055 269.04 633.125 265.08 633.125 260.58V259.5C633.125 254.94 634.055 250.95 635.915 247.53C637.775 244.11 640.355 241.47 643.655 239.61C646.955 237.69 650.735 236.73 654.995 236.73C659.135 236.73 662.795 237.63 665.975 239.43C669.155 241.17 671.645 243.69 673.445 246.99C675.245 250.29 676.145 254.16 676.145 258.6V261.84H640.235C640.415 266.58 641.945 270.3 644.825 273C647.705 275.64 651.305 276.96 655.625 276.96C659.405 276.96 662.315 276.09 664.355 274.35C666.395 272.61 667.955 270.54 669.035 268.14L675.155 271.11C674.255 272.97 672.995 274.83 671.375 276.69C669.815 278.55 667.745 280.11 665.165 281.37C662.645 282.63 659.405 283.26 655.445 283.26ZM640.325 255.99H668.945C668.705 251.91 667.295 248.73 664.715 246.45C662.195 244.17 658.955 243.03 654.995 243.03C650.975 243.03 647.675 244.17 645.095 246.45C642.515 248.73 640.925 251.91 640.325 255.99ZM688.547 282V237.99H695.477V245.46H696.737C697.697 243.36 699.317 241.47 701.597 239.79C703.937 238.05 707.357 237.18 711.857 237.18C715.157 237.18 718.097 237.87 720.677 239.25C723.317 240.63 725.417 242.67 726.977 245.37C728.537 248.07 729.317 251.4 729.317 255.36V282H722.207V255.9C722.207 251.52 721.097 248.34 718.877 246.36C716.717 244.38 713.777 243.39 710.057 243.39C705.797 243.39 702.317 244.77 699.617 247.53C696.977 250.29 695.657 254.4 695.657 259.86V282H688.547ZM758.712 282C756.192 282 754.242 281.31 752.862 279.93C751.542 278.55 750.882 276.66 750.882 274.26V244.2H737.652V237.99H750.882V222.33H757.992V237.99H772.392V244.2H757.992V273.18C757.992 274.98 758.862 275.88 760.602 275.88H770.412V282H758.712ZM801.638 283.26C796.178 283.26 791.558 282 787.778 279.48C784.058 276.96 781.808 272.97 781.028 267.51L787.778 265.98C788.258 268.86 789.158 271.14 790.478 272.82C791.798 274.44 793.418 275.61 795.338 276.33C797.318 276.99 799.418 277.32 801.638 277.32C804.938 277.32 807.548 276.66 809.468 275.34C811.388 274.02 812.348 272.25 812.348 270.03C812.348 267.75 811.418 266.16 809.558 265.26C807.758 264.3 805.268 263.52 802.088 262.92L798.398 262.29C795.578 261.81 792.998 261.06 790.658 260.04C788.318 259.02 786.458 257.64 785.078 255.9C783.698 254.16 783.008 251.97 783.008 249.33C783.008 245.37 784.538 242.28 787.598 240.06C790.658 237.84 794.708 236.73 799.748 236.73C804.728 236.73 808.748 237.87 811.808 240.15C814.928 242.37 816.938 245.52 817.838 249.6L811.178 251.31C810.638 248.13 809.348 245.91 807.308 244.65C805.268 243.33 802.748 242.67 799.748 242.67C796.748 242.67 794.378 243.24 792.638 244.38C790.898 245.46 790.028 247.08 790.028 249.24C790.028 251.34 790.838 252.9 792.458 253.92C794.138 254.88 796.358 255.6 799.118 256.08L802.808 256.71C805.928 257.25 808.718 258 811.178 258.96C813.698 259.86 815.678 261.18 817.118 262.92C818.618 264.66 819.368 266.94 819.368 269.76C819.368 274.08 817.748 277.41 814.508 279.75C811.328 282.09 807.038 283.26 801.638 283.26Z" fill="#cccccf"/>
</svg>
