<svg width="1024" height="1024" viewBox="0 0 1024 1024" fill="none" xmlns="http://www.w3.org/2000/svg">
<path d="M737 165.438C737 165.438 737 287.605 737 404.061C737 520.516 512 514.803 512 629.5C512 744.197 512 852.742 512 852.742" stroke="#75AFF3" stroke-opacity="0.9" stroke-width="50"/>
<path d="M287 167.635C287 167.635 287 289.363 287 404.5C287 519.637 737 517.879 737 629.5C737 741.121 737 863.289 737 863.289" stroke="#F375B9" stroke-opacity="0.9" stroke-width="50"/>
<path d="M512 102.156C512 102.156 512 292.439 512 404.5C512 516.561 287 518.758 287 629.5C287 740.242 287 873.836 287 873.836" stroke="#BCF375" stroke-opacity="0.9" stroke-width="50"/>
<path d="M97 517C97 287.802 282.802 102 512 102C741.198 102 927 287.802 927 517C927 709.175 796.345 870.921 618.967 918.093C616.178 916.082 613.208 913.218 607.793 907.998C606.252 906.511 604.512 904.834 602.521 902.93C585.175 886.342 557.149 861.688 510.682 861.688C463.938 861.688 436.505 886.612 419.63 903.449C417.582 905.491 415.821 907.265 414.281 908.815C409.634 913.493 407.01 916.135 404.657 917.992C227.47 870.692 97 709.039 97 517Z" stroke="#DDDDDD" stroke-width="70"/>
</svg>
